<?xml version="1.0" encoding="UTF-8"?>
<svg version="1.1" xmlns="http://www.w3.org/2000/svg" width="380" height="246">
<path d="M0 0 C4.98266856 0.40750449 7.84313969 2.99047591 11.375 6.25 C12.21224609 6.96736328 12.21224609 6.96736328 13.06640625 7.69921875 C16.94142421 11.22979067 16.94142421 11.22979067 17.18359375 14.4140625 C15.50818775 18.07452048 13.19049286 20.99012319 10.6875 24.125 C-24.16635125 69.28928169 -50.92356724 127.7563226 -46 186 C-45.2356156 190.54123437 -43.90356666 194.80195567 -42 199 C-36.25142305 196.35262904 -31.71232795 193.45081429 -27 189.25 C-26.39333496 188.71995361 -25.78666992 188.18990723 -25.16162109 187.64379883 C-21.26579665 184.211118 -17.52656856 180.65994124 -13.921875 176.92089844 C-12.10421344 175.10416049 -10.22973015 173.43456258 -8.2734375 171.76953125 C-3.97704225 168.03876371 0.01729313 164.06049411 4 160 C8.6000656 155.31008937 13.27152803 150.81544168 18.25 146.52734375 C20.26250971 144.77088996 22.14491895 142.92133395 24 141 C27.08245505 137.87589016 30.27509772 134.97298912 33.6015625 132.11328125 C36.79146323 129.30263582 39.89271293 126.40136278 43 123.5 C47.30531924 119.48392847 51.62967781 115.5087066 56.08984375 111.6640625 C58.36204511 109.68459874 60.58459872 107.6541683 62.8125 105.625 C66.27530082 102.49577173 69.80679003 99.49499651 73.4375 96.5625 C77.24087503 93.48663412 80.90082652 90.31246834 84.5 87 C88.86237579 82.99448993 93.33011054 79.18394994 97.94140625 75.46875 C100.19334735 73.65109128 102.4276326 71.81911904 104.65234375 69.96875 C150.62150215 31.8867382 150.62150215 31.8867382 174 33 C180.19161491 34.085914 184.63137319 36.52735827 189 41 C190.91653011 43.9675305 191.99819077 45.87827816 192.00390625 49.421875 C190.50705671 53.2659244 187.49842254 54.45946878 184 56.25 C182.70787227 56.94184792 181.41618248 57.63451458 180.125 58.328125 C178.578125 59.15570313 178.578125 59.15570313 177 60 C176.67 60.33 176.34 60.66 176 61 C173.6875 61.3125 173.6875 61.3125 171 61 C168.6875 59 168.6875 59 167 57 C144.65786537 64.36157892 125.4154684 82.95819803 107.83520508 97.91650391 C104.43037629 100.80927146 100.98260566 103.63825447 97.5 106.4375 C92.76149128 110.28753834 88.30066982 114.37494154 83.84912109 118.54736328 C79.53493848 122.5683615 75.02411584 126.28716094 70.42578125 129.98046875 C67.65414758 132.28793188 65.15057567 134.75944643 62.64453125 137.34765625 C60.99158397 139.00845601 59.27748362 140.53622391 57.5 142.0625 C51.50364034 147.23854841 45.77748655 152.71030459 40.00097656 158.12841797 C38.04530445 159.9576252 36.08265195 161.77897965 34.1171875 163.59765625 C27.64186988 169.59662867 21.27392968 175.66509343 15.07226562 181.94702148 C11.81292659 185.23359579 8.4391551 188.30517787 4.9140625 191.30078125 C2.73529844 193.23499016 0.7203868 195.28823811 -1.3125 197.375 C-12.40045323 208.57726203 -25.88725827 220.96717123 -42.21875 222.06640625 C-47.68336345 221.93593093 -52.01533103 220.15387731 -56.6875 217.4375 C-70.31583651 203.07249665 -69.55820937 182.83474733 -69.13183594 164.34277344 C-66.91318176 108.08756422 -41.77247464 57.68779383 -9.8125 12.625 C-9.40829834 12.05362305 -9.00409668 11.48224609 -8.58764648 10.89355469 C-5.88317635 7.11493343 -3.0105375 3.53992153 0 0 Z " fill="#1241CF" transform="translate(69,0)"/>
<path d="M0 0 C6.04205909 5.29127068 8.55722551 10.41265037 9.3359375 18.48046875 C9.58139588 41.77446913 1.39935425 63.30417963 -6.29077148 84.98736572 C-6.96621115 86.90411469 -7.62230022 88.82765006 -8.27734375 90.75146484 C-10.6128787 97.31360692 -12.90138243 102.10625985 -18.125 106.75 C-18.96889282 107.54639893 -18.96889282 107.54639893 -19.82983398 108.35888672 C-24.99368254 113.16918624 -30.41276634 117.69064783 -36 122 C-36.69996094 122.57492188 -37.39992188 123.14984375 -38.12109375 123.7421875 C-40 125 -40 125 -43 125 C-42.4679622 117.72551215 -40.25264721 111.42214833 -37.7734375 104.59375 C-37.34753326 103.39681519 -36.92162903 102.19988037 -36.4828186 100.9666748 C-35.12125465 97.14164043 -33.74945333 93.32041381 -32.375 89.5 C-24.7497376 68.30386843 -24.7497376 68.30386843 -17.9140625 46.84375 C-17.6284848 45.90503052 -17.3429071 44.96631104 -17.04867554 43.99914551 C-15.28803798 37.91269674 -13.51393125 31.37758477 -14 25 C-15.20451497 23.11192862 -15.20451497 23.11192862 -17 22 C-36.47642009 23.13326937 -59.65771453 47.17575324 -73.890625 59.35546875 C-76.68243176 61.74121013 -79.52011275 64.06490632 -82.375 66.375 C-92.10069344 74.29753568 -101.51397546 82.60162521 -110.80859375 91.0234375 C-112.85538796 92.86956561 -114.92131557 94.68993284 -117 96.5 C-120.85388274 99.85860464 -124.65498241 103.27346666 -128.44921875 106.69921875 C-130.07327337 108.1641011 -131.70053785 109.62543831 -133.33203125 111.08203125 C-144.0348596 120.64890436 -154.51012037 130.42299569 -164.6015625 140.6328125 C-166.61530978 142.62032203 -168.65642893 144.4839334 -170.8125 146.3125 C-174.75410967 149.6689635 -178.36060619 153.32383016 -182 157 C-186.84099808 161.87459852 -191.65767273 166.66865118 -197 171 C-197.97324219 171.80050781 -198.94648438 172.60101563 -199.94921875 173.42578125 C-210.40878518 181.87213693 -219.55317621 188.09369977 -233.57421875 187.44921875 C-240.96594782 186.47994983 -245.10822666 183.47235507 -249.87109375 177.87890625 C-251.22798481 175.62055124 -251.61356536 173.58955625 -252 171 C-249.94579679 169.34280239 -247.88272295 167.69947241 -245.8125 166.0625 C-244.9452832 165.35963867 -244.9452832 165.35963867 -244.06054688 164.64257812 C-238.2234704 160.05865931 -238.2234704 160.05865931 -234 160 C-231.1875 162.4375 -231.1875 162.4375 -229 165 C-221.38299431 160.86736925 -215.30237586 155.90782844 -209 150 C-207.65092986 148.82744371 -206.29707964 147.66035411 -204.9375 146.5 C-201.26521019 143.30798954 -197.85583155 139.89754945 -194.46875 136.40625 C-192.4450005 134.43373466 -190.39010541 132.59129029 -188.25 130.75 C-183.7827825 126.87397065 -179.64232415 122.71777632 -175.5 118.5 C-170.81466369 113.72932059 -166.08324363 109.12149157 -161.01367188 104.75976562 C-157.41144802 101.61175041 -153.96641262 98.29593332 -150.5 95 C-142.91527146 87.7882909 -135.08993791 80.91113167 -127.125 74.125 C-122.96793311 70.57598667 -118.85424498 66.99325978 -114.8125 63.3125 C-110.66871499 59.55214964 -106.37929451 56.01574143 -102.02734375 52.5 C-99.21907817 50.18091617 -96.47907836 47.80405274 -93.74682617 45.39697266 C-85.79504901 38.40040441 -77.55880692 31.88129592 -69.07128906 25.54785156 C-67.07943063 24.05935764 -65.09780125 22.55809365 -63.1171875 21.0546875 C-19.27278299 -11.97067266 -19.27278299 -11.97067266 0 0 Z " fill="#13CFA0" transform="translate(298,55)"/>
<path d="M0 0 C3.30269229 1.52749519 5.83384672 3.83909312 8.5 6.26171875 C9.34401367 6.97908203 9.34401367 6.97908203 10.20507812 7.7109375 C11.80078125 9.15234375 11.80078125 9.15234375 14.1875 12.01171875 C14.28359626 15.20211464 13.53699495 16.52878027 11.68359375 19.08984375 C10.19232388 20.66317591 8.70074803 22.23621805 7.20898438 23.80908203 C5.11599748 26.02171504 3.03710922 28.24673381 0.96508789 30.47900391 C-9.70935167 41.9478366 -20.71629754 53.07147957 -31.80615234 64.13574219 C-34.33513245 66.65895565 -36.85949698 69.18673233 -39.38262939 71.7157917 C-41.36268571 73.69948254 -43.34514294 75.68076025 -45.32830811 77.66134262 C-46.70540208 79.0374648 -48.08051788 80.41556566 -49.45556641 81.79373169 C-54.41636436 86.73610443 -59.48068281 91.47276086 -64.8125 96.01171875 C-65.8454953 96.91225226 -66.87806923 97.81326942 -67.91015625 98.71484375 C-106.18781582 131.59631152 -106.18781582 131.59631152 -130.41796875 131.3515625 C-137.34089074 130.65847365 -142.66480717 127.6297805 -147.3125 122.51171875 C-152.97445921 115.53302484 -153.29288695 106.50431042 -152.65332031 97.86035156 C-151.34762599 85.76802335 -148.31274892 74.00146138 -144.81689453 62.37939453 C-144.08358182 59.92064014 -143.36924552 57.46044662 -142.67138672 54.99169922 C-141.62988384 51.32053384 -140.53664197 47.66762235 -139.41455078 44.02032471 C-138.97886875 42.58054925 -138.5575742 41.13632402 -138.15234375 39.68768311 C-134.82593075 27.88724674 -129.67916309 22.1138393 -119.8125 15.01171875 C-118.48060451 13.93389705 -117.15452985 12.84874732 -115.83984375 11.75 C-114.82019531 10.94949219 -113.80054688 10.14898437 -112.75 9.32421875 C-111.95819336 8.68323242 -111.95819336 8.68323242 -111.15039062 8.02929688 C-107.98876998 5.56410331 -106.99139228 5.01171875 -102.8125 5.01171875 C-103.42104961 12.06075178 -105.82296294 18.45732846 -108.109375 25.1171875 C-108.54513043 26.40422872 -108.98011279 27.69153191 -109.41436768 28.9790802 C-111.01944528 33.73331985 -112.63607588 38.48360443 -114.25622559 43.23272705 C-125.46586717 72.89640503 -125.46586717 72.89640503 -129.875 103.88671875 C-129.86597656 104.85351562 -129.85695312 105.8203125 -129.84765625 106.81640625 C-129.83605469 107.54085937 -129.82445312 108.2653125 -129.8125 109.01171875 C-109.8147847 106.49573721 -93.4709587 90.18303554 -79.15625 77.13671875 C-77.00557289 75.18677151 -74.82425029 73.28145746 -72.625 71.38671875 C-69.49918726 68.668076 -66.57983 65.80426642 -63.68066406 62.84741211 C-61.90872459 61.10627085 -60.08268191 59.49241407 -58.19140625 57.8828125 C-53.33187176 53.65601243 -48.79164001 49.13760643 -44.25 44.57421875 C-43.43853516 43.76662109 -42.62707031 42.95902344 -41.79101562 42.12695312 C-37.49562121 37.82462506 -33.37802278 33.44050536 -29.41430664 28.83178711 C-27.00558619 26.09485509 -24.42193811 23.55543447 -21.8125 21.01171875 C-18.42150124 17.66703505 -15.10840986 14.31283292 -12 10.69921875 C-9.74437132 8.08048887 -7.48319626 5.47656833 -5.125 2.94921875 C-4.58488281 2.36011719 -4.04476562 1.77101563 -3.48828125 1.1640625 C-1.8125 0.01171875 -1.8125 0.01171875 0 0 Z " fill="#1241CF" transform="translate(355.8125,97.98828125)"/>
<path d="M0 0 C3.77973051 1.42375328 6.0023641 3.87789933 8.78930664 6.72192383 C9.3474707 7.25624023 9.90563477 7.79055664 10.48071289 8.34106445 C12.06274414 9.92895508 12.06274414 9.92895508 14.41430664 12.90942383 C14.39592691 16.61616874 12.04193444 18.63216856 9.542099 21.14717102 C8.73440819 21.93634163 8.73440819 21.93634163 7.91040039 22.74145508 C7.35369156 23.29629074 6.79698273 23.8511264 6.22340393 24.42277527 C5.04240137 25.59705828 3.85780789 26.76773925 2.66992188 27.93505859 C0.87588491 29.69825942 -0.90756532 31.47160054 -2.68920898 33.24731445 C-7.95343125 38.47533352 -13.23837563 43.62855137 -18.88378906 48.44824219 C-21.09797564 50.3492473 -23.2222316 52.33730283 -25.35058594 54.33325195 C-69.19347963 95.44417799 -69.19347963 95.44417799 -95.65600586 95.26489258 C-100.49766243 94.67743825 -104.60020839 92.67820497 -108.58569336 89.90942383 C-110.58569336 86.90942383 -110.58569336 86.90942383 -110.42285156 84.87207031 C-109.38737254 82.44447748 -108.45724313 81.82295311 -106.19116211 80.50708008 C-105.48886475 80.09441895 -104.78656738 79.68175781 -104.06298828 79.2565918 C-103.30735596 78.83265137 -102.55172363 78.40871094 -101.77319336 77.97192383 C-101.00144775 77.5273584 -100.22970215 77.08279297 -99.43457031 76.62475586 C-95.14461025 74.19819286 -90.87299664 72.07663442 -86.27319336 70.28442383 C-60.70816904 60.26710818 -36.85002445 34.65469772 -18.08178711 15.25317383 C-17.13030836 14.27643458 -16.17864829 13.29987193 -15.22680664 12.32348633 C-13.35899577 10.40687889 -11.51566864 8.47381134 -9.67895508 6.52661133 C-8.82962402 5.65262695 -7.98029297 4.77864258 -7.10522461 3.87817383 C-6.35345947 3.08862305 -5.60169434 2.29907227 -4.82714844 1.4855957 C-2.58569336 -0.09057617 -2.58569336 -0.09057617 0 0 Z " fill="#16D0A1" transform="translate(365.585693359375,151.090576171875)"/>
<path d="M0 0 C4.68703809 0.52078201 7.50372966 2.46336541 11.25 5.25 C12.30703125 6.01828125 13.3640625 6.7865625 14.453125 7.578125 C17.29514936 10.2806635 17.77746968 11.17128331 18 15 C16.83520508 17.42163086 16.83520508 17.42163086 15.01953125 19.96484375 C14.35566406 20.91842773 13.69179687 21.87201172 13.0078125 22.85449219 C12.28335938 23.87188477 11.55890625 24.88927734 10.8125 25.9375 C-3.39504777 46.59106481 -19.30980706 71.76629377 -22.26928711 97.32568359 C-23.27758665 104.79812061 -26.34088975 108.37600435 -31.8125 113.375 C-32.88081055 114.40173828 -32.88081055 114.40173828 -33.97070312 115.44921875 C-43.99438714 125 -43.99438714 125 -48 125 C-48.60164502 94.03111438 -38.39923462 64.99513653 -24 38 C-23.66419922 37.36175293 -23.32839844 36.72350586 -22.98242188 36.06591797 C-17.18782458 25.11720781 -10.39639128 14.95877867 -3.27758789 4.83081055 C-2.16400729 3.23502592 -1.07940016 1.61910025 0 0 Z " fill="#14CFA0" transform="translate(88,52)"/>
<path d="M0 0 C1.87402344 0.77636719 1.87402344 0.77636719 2.87402344 2.77636719 C2.17921875 2.82664062 1.48441406 2.87691406 0.76855469 2.92871094 C-3.17709094 4.08418341 -5.56236094 6.53963437 -8.43847656 9.33886719 C-8.98826172 9.85900391 -9.53804688 10.37914063 -10.10449219 10.91503906 C-11.45328002 12.19345535 -12.79078092 13.48376152 -14.12597656 14.77636719 C-14.12597656 10.95387168 -12.63672908 9.84288024 -10.05566406 7.19824219 C-9.22421875 6.37066406 -9.22421875 6.37066406 -8.37597656 5.52636719 C-7.56773437 4.67558594 -7.56773437 4.67558594 -6.74316406 3.80761719 C-2.67410514 -0.2812908 -2.67410514 -0.2812908 0 0 Z " fill="#8199E5" transform="translate(356.1259765625,98.2236328125)"/>
<path d="M0 0 C2.4375 0.375 2.4375 0.375 5 1 C5.33 1.66 5.66 2.32 6 3 C5.29875 3.061875 4.5975 3.12375 3.875 3.1875 C-0.0332733 4.29201202 -2.00357248 6.28230992 -5 9 C-5 4.61031544 -2.87194899 3.23094261 0 0 Z " fill="#718DE2" transform="translate(69,0)"/>
<path d="M0 0 C0.66 0.33 1.32 0.66 2 1 C1.79375 1.721875 1.5875 2.44375 1.375 3.1875 C0.94047789 6.44641585 1.58319331 8.08304504 3 11 C0.56944242 8.88306276 -0.84507109 7.46478674 -1.875 4.375 C-1.91625 3.59125 -1.9575 2.8075 -2 2 C-1.34 1.34 -0.68 0.68 0 0 Z " fill="#85E6CE" transform="translate(48,224)"/>
<path d="M0 0 C2.4375 0.375 2.4375 0.375 5 1 C5.33 1.66 5.66 2.32 6 3 C5.2575 3.12375 4.515 3.2475 3.75 3.375 C1.19858515 3.95486701 -0.7267573 4.73708739 -3 6 C-2 4 -1 2 0 0 Z " fill="#86E6CE" transform="translate(88,52)"/>
</svg>
